<svg width="386" height="270" viewBox="0 0 386 270" fill="none" xmlns="http://www.w3.org/2000/svg">
<path fill-rule="evenodd" clip-rule="evenodd" d="M213.495 97.8719L385.251 0.287862L385.155 0.38382L269.799 113.56C269.813 118.95 269.819 125.949 269.819 134.91C269.819 209.369 209.369 269.82 134.91 269.82C60.4503 269.82 0 209.369 0 134.91C0 60.4503 60.3544 0 134.91 0L289.202 0.38382L212.152 24.1801L134.91 48.0724C87.0293 48.0724 48.2643 86.8373 48.2643 134.718C48.2643 182.598 95.9529 221.363 134.91 221.363C173.867 221.363 206.778 195.744 217.717 160.433C220.308 152.373 221.651 147.959 221.651 134.718C221.651 121.476 218.773 109.002 213.495 97.8719ZM268.38 114.952L268.719 114.62C268.613 115.526 268.501 115.77 268.38 114.952ZM349.647 0.294136L204.471 82.9096L204.279 83.0055C195.259 70.8195 183.073 61.1283 168.968 55.0832L349.647 0.294136Z" fill="white" fill-opacity="0.06"/>
</svg>
