<?xml version="1.0" encoding="utf-8"?>
<!-- Generator: Adobe Illustrator 28.1.0, SVG Export Plug-In . SVG Version: 6.00 Build 0)  -->
<svg version="1.1" id="Layer_1" xmlns="http://www.w3.org/2000/svg" xmlns:xlink="http://www.w3.org/1999/xlink" x="0px" y="0px"
	 viewBox="0 0 1375.4 333.9" style="enable-background:new 0 0 1375.4 333.9;" xml:space="preserve">
<style type="text/css">
	.st0{fill:#010101;}
</style>
<g>
	<path class="st0" d="M201.3,27.9C179.3,9.9,151.7,0,123.2,0C94.7-0.1,67.1,9.8,45.1,27.9c-15.7,12.9-28,29.4-35.7,48.2
		c-7.8,18.8-10.8,39.1-8.7,59.3c2,20.2,9,39.6,20.3,56.4c11.3,16.8,26.6,30.6,44.6,40.1c0.4,1.4,0.9,2.8,1.4,4.4
		c1.9,5.4,4.6,10.5,7.9,15.2c2.5,3.5,6.2,6,10.4,7c2.3,0.6,4.7,0.7,7,0.3c2.3-0.4,4.6-1.2,6.6-2.4c2-1.2,3.8-2.9,5.2-4.8
		c1.4-1.9,2.4-4.1,2.9-6.4c1.2-5.6,1.8-11.3,1.6-17c-0.1-5.5-0.7-11-1.8-16.4c-0.6-3.6-2.1-7.1-4.4-10c-2.3-2.9-5.2-5.2-8.5-6.7
		h-0.7c-16.4-7.1-29.8-19.7-38.1-35.5c-4.8-9.8-7.5-20.4-7.9-31.3c-0.4-10.9,1.5-21.7,5.6-31.8C56.9,86.4,63,77.3,70.9,69.7
		c7.9-7.6,17.2-13.4,27.5-17c10.3-3.7,21.2-5.1,32-4.3c10.9,0.8,21.4,4,31,9.2c9.6,5.2,17.9,12.4,24.5,21.1
		c6.6,8.7,11.3,18.6,13.8,29.2c3.8,17.6,1.5,36-6.6,52c-8.3,16.2-21.7,29.1-38.1,36.8h-0.3l-2,1c-0.7,0.4-1.3,0.8-1.9,1.2l-1.4,1.1
		c-0.6,0.5-1.2,1-1.7,1.6c-1.5,1.5-2.8,3.3-3.8,5.2l-0.6,1.2l-0.3,0.8l-0.8,1.6c-0.3,0.9-0.6,1.8-0.9,2.7c-0.6,2.5-1.1,5.1-1.4,7.6
		c-0.4,4.4-0.6,8.2-0.7,11.9l-0.3,21.2c0,6.9-0.2,13.7-0.3,20.5c-0.2,7.1-1.9,14.1-5,20.5c-2.1,4.2-3.2,8.9-2.9,13.6
		c0.2,4.7,1.7,9.3,4.2,13.3c2.5,4,6.1,7.2,10.2,9.4c4.2,2.2,8.9,3.2,13.6,3.1c4.7-0.2,9.3-1.6,13.3-4.1c4-2.5,7.3-6,9.5-10.2
		c2.2-4.2,3.3-8.8,3.2-13.5c-0.1-4.7-1.5-9.3-4-13.3c-3.6-5.8-5.7-12.4-6.2-19.2c-0.4-6.5-0.6-12.9-0.4-19.3
		c0.1-6.2,0.6-12.3,1.6-18.4c0.2-1.3,0.5-2.6,0.8-3.8c23.5-11,42.8-29.2,55.1-52c13.4-24.9,17.8-53.7,12.3-81.5
		C238.2,70.9,223.2,45.9,201.3,27.9z"/>
	<path class="st0" d="M154.8,154.9l-31.3-31.3L92.1,92.2l-2.5-2.5c-8.7,9-13.4,21.1-13.3,33.7c0.1,12.5,5.2,24.5,14,33.4
		c8.9,8.9,20.8,13.9,33.4,14c12.5,0.1,24.6-4.6,33.7-13.3L154.8,154.9z"/>
	<path class="st0" d="M979.5,198.8h-88.6V47.3c0-5.3-2.1-10.4-5.8-14.1c-3.7-3.7-8.8-5.8-14.1-5.8c-5.3,0-10.4,2.1-14.1,5.8
		c-3.7,3.7-5.8,8.8-5.8,14.1v171.5c0,5.3,2.1,10.4,5.9,14.1c3.7,3.7,8.8,5.8,14.1,5.9h108.6c5.3,0,10.4-2.1,14.1-5.8
		c3.7-3.7,5.8-8.8,5.8-14.1c0-5.3-2.1-10.4-5.8-14.1C989.9,200.9,984.8,198.8,979.5,198.8z"/>
	<path class="st0" d="M1153.9,27.3h-0.2h-111.3c-5.3,0-10.4,2.1-14.1,5.8c-3.7,3.7-5.8,8.8-5.8,14.1c0,5.3,2.1,10.4,5.8,14.1
		c3.7,3.7,8.8,5.8,14.1,5.8h111.5c5.3,0,10.4-2.1,14.1-5.8c3.7-3.7,5.8-8.8,5.8-14.1c0-5.3-2.1-10.4-5.8-14.1
		C1164.2,29.4,1159.2,27.3,1153.9,27.3z"/>
	<path class="st0" d="M1127.4,153c5.3,0,10.4-2.1,14.1-5.8c3.7-3.7,5.8-8.8,5.8-14.1c0-5.3-2.1-10.4-5.8-14.1
		c-3.7-3.7-8.8-5.8-14.1-5.8h-59c-5.3,0-10.4,2.1-14.1,5.8c-3.7,3.7-5.8,8.8-5.8,14.1c0,5.3,2.1,10.4,5.8,14.1
		c3.7,3.7,8.8,5.8,14.1,5.8H1127.4z"/>
	<path class="st0" d="M1153.9,198.8h-0.2h-111.3c-5.3,0-10.4,2.1-14.1,5.8c-3.7,3.7-5.8,8.8-5.8,14.1c0,5.3,2.1,10.4,5.8,14.1
		c3.7,3.7,8.8,5.8,14.1,5.8h111.5c5.3,0,10.4-2.1,14.1-5.8c3.7-3.7,5.8-8.8,5.8-14.1c0-5.3-2.1-10.4-5.8-14.1
		C1164.2,200.9,1159.2,198.8,1153.9,198.8z"/>
	<path class="st0" d="M616.4,33.2c-1.9-1.9-4.1-3.3-6.5-4.3c-2.4-1-5-1.5-7.6-1.5c-5.3,0-10.4,2.1-14.1,5.8
		c-3.7,3.7-5.8,8.8-5.8,14.1v65.2h-85.2V47.3c0-2.6-0.5-5.2-1.5-7.6c-1-2.4-2.5-4.6-4.3-6.5c-1.9-1.9-4.1-3.3-6.5-4.3
		c-2.4-1-5-1.5-7.6-1.5H296.8c-5.3,0-10.4,2.1-14.1,5.8c-3.7,3.7-5.8,8.8-5.8,14.1c0,5.3,2.1,10.4,5.8,14.1
		c3.7,3.7,8.8,5.8,14.1,5.8H353v151.5c0,2.6,0.5,5.2,1.5,7.6c1,2.4,2.5,4.6,4.3,6.5c1.9,1.9,4.1,3.3,6.5,4.3c2.4,1,5,1.5,7.6,1.5
		c2.6,0,5.2-0.5,7.6-1.5c2.4-1,4.6-2.5,6.5-4.3c1.9-1.9,3.3-4.1,4.3-6.5c1-2.4,1.5-5,1.5-7.6V67.2h64.2v151.5
		c0,5.3,2.1,10.4,5.8,14.1c3.7,3.7,8.8,5.8,14.1,5.8s10.4-2.1,14.1-5.8c3.7-3.7,5.8-8.8,5.8-14.1v-66.5h85.2v66.5
		c0,5.3,2.1,10.4,5.8,14.1c3.7,3.7,8.8,5.8,14.1,5.8s10.4-2.1,14.1-5.8c3.7-3.7,5.8-8.8,5.8-14.1V47.3c0-2.6-0.5-5.2-1.5-7.6
		C619.7,37.2,618.2,35,616.4,33.2z"/>
	<path class="st0" d="M1359.8,128.6c-10-10-23.5-15.6-37.6-15.6h-71c-3.5,0-6.9-1.4-9.4-3.9c-2.5-2.5-3.9-5.9-3.9-9.4V80.5
		c0-3.5,1.4-6.9,3.9-9.4c2.5-2.5,5.9-3.9,9.4-3.9h73.8c5.3,0,10.4-2.1,14.1-5.8c3.7-3.7,5.8-8.8,5.8-14.1c0-5.3-2.1-10.4-5.8-14.1
		c-3.7-3.7-8.8-5.8-14.1-5.8h-73.6c-14.1,0-27.7,5.6-37.6,15.6c-10,10-15.6,23.5-15.6,37.6v19.3c0,14.1,5.6,27.7,15.6,37.6
		c10,10,23.5,15.6,37.6,15.6h71c3.5,0,6.9,1.4,9.4,3.9c2.5,2.5,3.9,5.9,3.9,9.4v19.3c0,3.5-1.4,6.9-3.9,9.4
		c-2.5,2.5-5.9,3.9-9.4,3.9h-104.2c-5.3,0-10.4,2.1-14.1,5.8c-3.7,3.7-5.8,8.8-5.8,14.1c0,5.3,2.1,10.4,5.8,14.1
		c3.7,3.7,8.8,5.8,14.1,5.8h104c14.1,0,27.7-5.6,37.6-15.6c10-10,15.6-23.5,15.6-37.6v-19.3C1375.4,152.1,1369.8,138.6,1359.8,128.6
		z"/>
	<path class="st0" d="M752.9,39.5c-1.5-3.6-4.1-6.7-7.4-8.8s-7.1-3.3-11-3.3c-3.9,0-7.7,1.2-11,3.3c-3.3,2.2-5.8,5.2-7.4,8.8
		L643.2,211c-1.3,3-1.8,6.3-1.5,9.6c0.3,3.3,1.4,6.4,3.2,9.2c1.8,2.8,4.3,5,7.2,6.6c2.9,1.6,6.1,2.4,9.4,2.4h145.7
		c3.3,0,6.5-0.8,9.4-2.4c2.9-1.6,5.4-3.8,7.2-6.6c1.8-2.8,2.9-5.9,3.2-9.2c0.3-3.3-0.2-6.6-1.5-9.6L752.9,39.5z M692,198.8
		l42.6-100.5l42.6,100.5H692z"/>
</g>
</svg>
