<svg width="500" height="500" viewBox="0 0 500 500" fill="none" xmlns="http://www.w3.org/2000/svg">
<g clip-path="url(#clip0_13873_27784)">
<path fill-rule="evenodd" clip-rule="evenodd" d="M302.208 215H323.526V227.211H302.208V284.478H287.741V227.211H266.354V215H287.741H302.208ZM55.9127 256.828C53.1171 265.951 44.6603 272.548 34.6659 272.548C24.6715 272.548 12.3707 262.512 12.3707 250.161C12.3707 237.809 22.3651 227.773 34.6659 227.773L54.515 221.597L74.2941 215.421L34.6659 215.281C15.5158 215.281 0 230.861 0 250.09C0 269.32 15.5158 284.9 34.6659 284.9C53.816 284.9 69.3318 269.32 69.3318 250.09C69.3318 247.843 69.33 246.073 69.3262 244.699L98.8958 215.561L54.82 240.741L54.7945 240.685V240.755L54.82 240.741C56.1323 243.604 56.8913 246.812 56.8913 250.159C56.8913 253.528 56.5417 254.721 55.9127 256.827L55.9139 256.825L55.9127 256.828ZM68.9913 245.029C69.0105 245.139 69.029 245.107 69.047 244.974L68.9913 245.029ZM125.734 215.492L111.476 264.548L111.686 276.268L96.5897 225.738L85.0577 238.3L100.783 284.97H118.256L141.32 215.492H125.734ZM332.751 215.492V284.97H347.218V215.492H332.751ZM500 227.844H457.646L468.619 232.265V244.125H498.183V255.635H468.619V272.548H500V284.97H454.151V215.492H500V227.844ZM253.215 254.372C251.677 255.635 249.861 256.758 247.903 257.53H247.974L262.58 284.97H246.156L227.635 248.617H234.135C237.769 248.617 240.635 247.705 242.662 245.81C244.688 243.915 245.667 241.318 245.667 237.95C245.667 236.335 245.387 234.862 244.828 233.528C244.339 232.195 243.5 231.072 242.522 230.16C241.474 229.177 240.285 228.475 238.817 227.984C237.349 227.493 235.742 227.212 233.925 227.212H221.345V284.97H206.877V215.492H235.952C239.796 215.492 243.22 215.983 246.226 217.036C249.232 218.089 251.817 219.562 253.914 221.457C256.081 223.422 257.688 225.738 258.806 228.475C259.925 231.212 260.484 234.37 260.484 237.809C260.484 240.055 260.204 242.16 259.645 244.196C259.086 246.231 258.247 248.126 257.199 249.81C256.081 251.564 254.752 253.038 253.215 254.372ZM420.325 215.492L402.572 258.653L405.228 274.303L400.265 262.232L381.115 215.492H364.062V284.97H377.481V238.511H378.25L395.862 280.97H405.507L423.12 238.511H423.889V284.97H437.308V215.492H420.325ZM195.905 227.844H153.55L164.523 232.265V244.125H194.087V255.635H164.523V272.548H195.905V284.97H150.056V215.492H195.905V227.844ZM52.4183 236.895L89.7404 215.561L43.3325 229.667C46.9667 231.211 50.1119 233.737 52.4183 236.895Z" fill="white"/>
</g>
<defs>
<clipPath id="clip0_13873_27784">
<rect width="500" height="70" fill="white" transform="translate(0 215)"/>
</clipPath>
</defs>
</svg>
