<svg width="500" height="70" viewBox="0 0 500 70" fill="none" xmlns="http://www.w3.org/2000/svg">
<g clip-path="url(#clip0_13873_27785)">
<path fill-rule="evenodd" clip-rule="evenodd" d="M302.208 0H323.526V12.2114H302.208V69.4784H287.741V12.2114H266.354V0H287.741H302.208ZM55.9127 41.8277C53.1171 50.9512 44.6603 57.5481 34.6659 57.5481C24.6715 57.5481 12.3707 47.5123 12.3707 35.1606C12.3707 22.8089 22.3651 12.7732 34.6659 12.7732L54.515 6.59728L74.2941 0.421423L34.6659 0.281064C15.5158 0.281064 0 15.861 0 35.0904C0 54.3198 15.5158 69.8997 34.6659 69.8997C53.816 69.8997 69.3318 54.3198 69.3318 35.0904C69.3318 32.8426 69.33 31.0733 69.3262 29.6987L98.8958 0.560568L54.82 25.7406L54.7945 25.6851V25.7553L54.82 25.7406C56.1323 28.604 56.8913 31.8124 56.8913 35.1594C56.8913 38.528 56.5417 39.7211 55.9127 41.8265L55.9139 41.8255L55.9127 41.8277ZM68.9913 30.0287C69.0105 30.1393 69.029 30.1072 69.047 29.9739L68.9913 30.0287ZM125.734 0.491863L111.476 49.5478L111.686 61.2679L96.5897 10.7382L85.0577 23.3004L100.783 69.9702H118.256L141.32 0.491863H125.734ZM332.751 0.491863V69.9702H347.218V0.491863H332.751ZM500 12.8436H457.646L468.619 17.2649V29.1254H498.183V40.6349H468.619V57.5484H500V69.9702H454.151V0.491863H500V12.8436ZM253.215 39.3717C251.677 40.6349 249.861 41.7578 247.903 42.5297H247.974L262.58 69.9702H246.156L227.635 33.6169H234.135C237.769 33.6169 240.635 32.7046 242.662 30.8097C244.688 28.9148 245.667 26.3182 245.667 22.9495C245.667 21.3354 245.387 19.8616 244.828 18.5282C244.339 17.1947 243.5 16.0718 242.522 15.1595C241.474 14.177 240.285 13.4752 238.817 12.984C237.349 12.4927 235.742 12.2119 233.925 12.2119H221.345V69.9702H206.877V0.491863H235.952C239.796 0.491863 243.22 0.98313 246.226 2.03583C249.232 3.08854 251.817 4.56231 253.914 6.45718C256.081 8.42221 257.688 10.7382 258.806 13.4752C259.925 16.2122 260.484 19.3704 260.484 22.8091C260.484 25.0549 260.204 27.1603 259.645 29.1956C259.086 31.2308 258.247 33.1256 257.199 34.81C256.081 36.5645 254.752 38.0382 253.215 39.3717ZM420.325 0.491863L402.572 43.6526L405.228 59.3029L400.265 47.2319L381.115 0.491863H364.062V69.9702H377.481V23.511H378.25L395.862 65.97H405.507L423.12 23.511H423.889V69.9702H437.308V0.491863H420.325ZM195.905 12.8436H153.55L164.523 17.2649V29.1254H194.087V40.6349H164.523V57.5484H195.905V69.9702H150.056V0.491863H195.905V12.8436ZM52.4183 21.8954L89.7404 0.560568L43.3325 14.6668C46.9667 16.2107 50.1119 18.7372 52.4183 21.8954Z" fill="#040D19"/>
</g>
<defs>
<clipPath id="clip0_13873_27785">
<rect width="500" height="70" fill="white"/>
</clipPath>
</defs>
</svg>
