<svg width="500" height="500" viewBox="0 0 500 500" fill="none" xmlns="http://www.w3.org/2000/svg">
<path fill-rule="evenodd" clip-rule="evenodd" d="M281.367 284.138C267.299 329.755 224.742 362.739 174.448 362.739C124.153 362.739 62.2524 312.56 62.2524 250.802C62.2524 189.043 112.547 138.865 174.448 138.865L274.333 107.985L373.867 77.1061L174.448 76.4043C78.0794 76.4043 0 154.304 0 250.451C0 346.598 78.0794 424.498 174.448 424.498C270.816 424.498 348.895 346.598 348.895 250.451C348.895 239.212 348.886 230.366 348.867 223.493L497.669 77.8018L275.868 203.702L275.74 203.424V203.775L275.868 203.702C282.472 218.019 286.291 234.061 286.291 250.796C286.291 267.639 284.533 273.604 281.367 284.132L281.373 284.126L281.367 284.138ZM347.182 225.143L347.462 224.869C347.372 225.535 347.279 225.695 347.182 225.143ZM451.597 77.8018L263.782 184.476C252.176 168.685 236.349 156.053 218.06 148.333L451.597 77.8018Z" fill="white"/>
</svg>
